<?xml version="1.0" encoding="utf-8"?>
<!-- Generator: Adobe Illustrator 16.0.3, SVG Export Plug-In . SVG Version: 6.00 Build 0)  -->
<!DOCTYPE svg PUBLIC "-//W3C//DTD SVG 1.1//EN" "http://www.w3.org/Graphics/SVG/1.1/DTD/svg11.dtd">
<svg version="1.1" id="Capa_1" xmlns="http://www.w3.org/2000/svg" xmlns:xlink="http://www.w3.org/1999/xlink" x="0px" y="0px"
	 width="788px" height="1766.5px" viewBox="185.5 0 788 1766.5" enable-background="new 185.5 0 788 1766.5" xml:space="preserve">
<linearGradient id="SVGID_1_" gradientUnits="userSpaceOnUse" x1="143.4788" y1="1383.334" x2="144.3916" y2="1382.5862" gradientTransform="matrix(967.3221 967.3221 -990.6564 990.6564 1231318.75 -1508361.125)">
	<stop  offset="0" style="stop-color:#D73A42"/>
	<stop  offset="1" style="stop-color:#FDCE52"/>
</linearGradient>
<path fill="url(#SVGID_1_)" d="M945.957,1237.639c19.912-124.699-2.773-246.91-60.965-360.221
	c-57.164-110.694-139.465-208.205-224.001-301.405C544.606,446.891,378.909,266.725,449.233,82.064
	c10.07-27.615,26.741-55.384,49.731-75.37c-85.692-4.869-172.846,0.42-257.258,12.269C102.766,38.704-55.232,81.501-142.843,193.135
	c-43.764,55.742-64.197,127.205-60.735,196.277c3.102,63.818,30.044,123.216,64.304,177.842
	c39.625,64.282,87.266,123.731,129.316,185.876c52.927,77.796,97.799,159.676,129.624,246.767
	c35.118,95.797,57.631,196.096,50.241,297.631c-6.206,84.56-31.063,166.936-68.665,243.657
	C61.659,1620.787,8.437,1698.901-58.57,1760.82c358.775,13.763,831.998-50.209,973.98-415.843
	c13.281-34.854,24.593-70.986,30.55-107.339"/>
</svg>
