<?xml version="1.0" encoding="UTF-8" standalone="no"?>
<svg
   xmlns:dc="http://purl.org/dc/elements/1.1/"
   xmlns:cc="http://creativecommons.org/ns#"
   xmlns:rdf="http://www.w3.org/1999/02/22-rdf-syntax-ns#"
   xmlns:svg="http://www.w3.org/2000/svg"
   xmlns="http://www.w3.org/2000/svg"
   viewBox="0 0 2400 1052.3625"
   height="1052.3625"
   width="2400"
   xml:space="preserve"
   version="1.1"
   id="svg2"><metadata
     id="metadata8"><rdf:RDF><cc:Work
         rdf:about=""><dc:format>image/svg+xml</dc:format><dc:type
           rdf:resource="http://purl.org/dc/dcmitype/StillImage" /></cc:Work></rdf:RDF></metadata><defs
     id="defs6"><clipPath
       id="clipPath16"
       clipPathUnits="userSpaceOnUse"><path
         id="path18"
         d="m 0,841.89 1920,0 L 1920,0 0,0 0,841.89 Z" /></clipPath></defs><g
     transform="matrix(1.25,0,0,-1.25,0,1052.3625)"
     id="g10"><g
       id="g12"><g
         clip-path="url(#clipPath16)"
         id="g14"><g
           transform="translate(1370.4561,518.6469)"
           id="g20"><path
             id="path22"
             style="fill:#ff3e3e;fill-opacity:1;fill-rule:nonzero;stroke:none"
             d="m 0,0 c 7.878,0 14.098,6.219 14.098,14.096 0,7.878 -6.22,14.097 -14.098,14.097 -7.879,0 -14.512,-6.219 -14.512,-14.097 C -14.512,6.219 -7.879,0 0,0" /></g><g
           transform="translate(1473.2773,488.7943)"
           id="g24"><path
             id="path26"
             style="fill:#ff3e3e;fill-opacity:1;fill-rule:nonzero;stroke:none"
             d="m 0,0 c 0,5.805 1.243,13.267 6.219,18.243 4.145,4.146 8.707,5.39 8.707,-0.414 C 14.926,8.707 8.707,-4.147 2.073,-13.269 0.828,-8.708 0,-4.562 0,0 m -471.404,-169.997 c -12.439,0.828 -16.171,11.195 -16.171,29.438 0.83,41.462 36.073,131.021 74.219,131.851 17,0 25.707,-11.194 26.536,-32.755 0,-0.416 -7.463,-17.414 -9.952,-24.05 -16.584,-42.291 -41.046,-105.313 -74.632,-104.484 m -260.372,272.408 c 14.098,0 27.78,-4.974 27.78,-15.756 -1.244,-20.731 -40.218,-35.657 -70.071,-35.657 -12.853,0 -22.805,1.657 -33.584,4.976 12.853,26.95 43.12,46.437 75.875,46.437 m -28.609,-126.875 c 4.561,0 7.049,-1.243 7.049,-2.488 0.415,-0.829 -0.83,-1.658 -3.732,-2.072 -5.805,-0.414 -12.024,0.414 -18.243,2.902 7.463,1.244 12.853,1.658 14.926,1.658 m 793.14,42.293 c -0.829,12.024 -7.879,21.56 -19.902,21.56 -16.999,0 -30.267,-18.243 -30.267,-39.806 0,-9.535 2.487,-18.657 6.219,-27.364 -4.977,-4.976 -9.121,-9.537 -14.098,-15.342 -1.243,-1.659 -2.072,-3.731 -2.072,-5.39 0,-2.488 0.829,-5.39 2.902,-7.048 1.658,-1.659 4.147,-2.074 6.22,-2.074 2.488,0 4.973,1.243 6.634,3.317 2.487,3.317 5.389,6.633 8.293,9.536 21.973,-38.56 28.192,-50.583 28.609,-68.826 -0.831,-34.415 -24.879,-56.389 -58.463,-56.389 -24.048,0 -45.195,17.828 -45.195,43.121 1.66,25.291 16.586,44.365 39.39,44.365 10.78,0 21.146,-10.367 21.975,-24.465 0,-4.973 3.73,-8.707 8.707,-8.707 4.977,0 8.707,3.734 8.707,8.707 -0.828,22.805 -18.243,41.877 -39.803,41.877 -21,0 -37.005,-9.813 -46.56,-26.475 -0.418,-0.53 -0.805,-1.094 -1.117,-1.718 -15.341,-34 -34.413,-76.705 -60.12,-76.705 -8.707,0 -12.438,5.391 -12.438,17.414 0,17.829 7.462,36.9 47.681,150.095 2.488,7.048 -2.903,11.195 -8.292,11.195 -3.318,0 -6.634,-2.074 -7.879,-5.805 -10.712,-27.755 -25.282,-65.372 -35.74,-98.249 -23.131,-51.613 -39.144,-74.65 -58.783,-74.65 -8.707,0 -12.44,5.391 -12.44,17.414 0,11.195 9.538,44.779 25.293,87.484 6.22,16.586 14.097,38.977 23.22,63.025 2.073,5.39 -2.075,11.61 -8.708,11.61 -3.317,0 -6.634,-2.074 -7.878,-5.39 -21.561,-58.878 -36.901,-102.829 -51.413,-131.852 -13.683,-28.193 -30.683,-42.291 -47.683,-42.291 -14.925,0 -22.803,8.707 -22.803,25.707 0,9.37 1.457,16.23 10.651,41.51 0.322,0.675 0.643,1.345 0.966,2.024 0.347,1.042 0.678,1.806 0.783,2.754 7.202,19.569 18.487,49.044 36.11,95.928 2.073,5.39 -1.243,11.61 -8.291,11.61 -3.318,0 -6.636,-2.074 -7.879,-5.39 -18.645,-48.363 -30.739,-79.437 -38.329,-100.94 -15.406,-33.06 -32.951,-66.984 -58.685,-66.984 -2.074,0 -4.147,0.415 -6.633,0.829 -4.562,0.83 -9.537,-1.657 -10.367,-6.634 -0.415,-1.243 0,-2.902 0.414,-4.146 4.56,-20.73 5.805,-38.975 5.805,-53.488 0,-28.607 -8.707,-58.46 -29.852,-58.46 -7.462,0 -12.439,3.732 -12.439,16.584 0,16.585 9.536,45.61 50.17,161.289 12.438,34.828 33.583,91.633 38.974,104.902 1.659,4.559 -0.414,9.535 -4.974,11.609 -4.562,1.657 -9.538,-0.831 -11.197,-5.391 l -6.218,-15.756 c -8.707,14.926 -19.904,21.147 -37.316,21.147 -36.535,0 -68.447,-51.672 -83.097,-100.894 -0.236,-0.352 -0.456,-0.718 -0.651,-1.105 -14.926,-33.584 -36.072,-76.291 -61.364,-76.291 -24.048,0 -36.073,30.682 -42.706,66.755 l 87.071,97.852 c 1.658,1.657 2.488,3.731 2.488,5.805 0,2.487 -1.244,4.56 -2.903,6.219 -1.658,1.659 -3.732,2.488 -5.804,2.488 -2.488,0 -4.976,-1.245 -6.635,-2.903 l -77.949,-87.487 c -1.658,12.024 -2.902,23.634 -4.145,34.415 -2.074,17.415 -3.732,32.755 -6.22,43.951 -2.073,8.707 -5.805,13.267 -13.683,13.267 -12.854,0 -18.243,-13.267 -21.975,-22.389 1.285,2.25 -22.577,-51.774 -35.119,-79.87 -0.383,-0.552 -0.708,-1.153 -0.948,-1.812 -0.728,-1.77 -1.465,-3.508 -2.205,-5.235 -2.01,-4.482 -3.446,-7.653 -4.019,-8.863 -0.059,-0.176 -0.115,-0.351 -0.174,-0.527 -26.067,-56.22 -59.735,-86.959 -111.771,-86.959 -38.974,0 -68.826,22.805 -68.826,64.682 0,43.121 28.608,81.681 73.388,97.853 13.683,-9.122 26.951,-14.098 40.218,-14.098 14.097,0 24.463,7.462 24.463,21.146 0,11.609 -12.853,18.243 -25.292,18.243 -7.463,0 -26.536,-3.317 -36.072,-5.804 -10.365,9.121 -18.244,21.976 -18.244,34.828 0,7.464 0.83,12.853 2.074,17.415 11.194,-3.317 23.633,-6.22 39.389,-6.22 40.218,0 86.656,21.145 87.485,53.486 0,20.732 -19.072,33.17 -45.194,33.17 -39.389,0 -75.461,-21.974 -92.046,-57.632 -23.219,14.512 -35.243,24.877 -48.096,51.412 -1.659,3.317 -4.561,4.977 -7.878,4.977 -1.244,0 -2.488,-0.415 -3.732,-0.829 -3.317,-1.659 -4.975,-4.562 -4.975,-7.464 0,-1.66 0.414,-2.902 0.829,-4.145 12.025,-25.707 33.17,-48.927 58.048,-60.122 -0.83,-3.317 -3.733,-12.853 -3.733,-24.462 0,-14.927 7.463,-29.853 17.829,-41.048 -44.779,-19.075 -75.876,-56.804 -75.876,-110.706 0,-50.169 35.658,-82.094 86.241,-82.094 63.853,0 104.901,40.217 134.339,112.362 0.186,0.558 0.367,1.03 0.515,1.496 11.989,26.894 35.188,79.059 38.869,87.649 2.074,-9.95 3.318,-23.219 4.976,-37.732 1.658,-15.341 3.731,-32.341 6.634,-48.925 l -67.583,-75.461 c -1.659,-1.66 -2.074,-3.732 -2.074,-5.805 0,-2.488 0.83,-4.977 2.903,-6.634 1.658,-1.659 3.732,-2.074 5.804,-2.074 2.489,0 4.975,0.829 6.634,2.903 l 58.462,65.51 c 9.122,-37.315 24.877,-68.413 57.218,-68.413 21.739,0 38.955,16.962 53.564,40.298 0.954,-22.035 10.745,-40.298 34.329,-40.298 14.513,0 27.364,8.293 38.561,19.488 -26.951,-80.023 -28.195,-84.584 -28.195,-101.169 0,-21.974 9.951,-33.17 29.853,-33.998 33.17,0 47.681,36.071 47.681,79.608 0,12.438 -1.659,26.536 -4.562,42.291 18.716,0.902 32.889,11.994 45.197,28.782 2.471,-22.928 15.895,-35.002 39.381,-35.002 l 0.413,0 c 18.659,0 37.73,12.438 49.757,29.438 2.486,-18.243 11.607,-29.438 29.852,-29.438 16.811,0 31.041,9.285 45.631,30.292 0.942,-16.971 11.522,-30.292 29.82,-30.292 22.601,0 39.614,17.812 54.213,42.555 7.939,-24.726 31.813,-42.555 59.803,-42.555 41.877,0 75.046,28.61 75.875,73.389 -0.414,28.193 -11.609,42.706 -33.17,82.511 12.856,14.512 23.22,32.755 23.22,49.341" /></g><g
           transform="translate(1594.3438,518.6469)"
           id="g28"><path
             id="path30"
             style="fill:#ff3e3e;fill-opacity:1;fill-rule:nonzero;stroke:none"
             d="m 0,0 c 7.878,0 14.098,6.219 14.098,14.096 0,7.878 -6.22,14.097 -14.098,14.097 -7.879,0 -14.513,-6.219 -14.513,-14.097 C -14.513,6.219 -7.879,0 0,0" /></g><g
           transform="translate(1735.3047,318.7972)"
           id="g32"><path
             id="path34"
             style="fill:#ff3e3e;fill-opacity:1;fill-rule:nonzero;stroke:none"
             d="m 0,0 c -12.438,0 -16.172,12.023 -16.172,30.267 0.831,41.047 36.074,130.192 74.219,131.023 14.927,0 25.706,-11.195 26.536,-30.27 L 74.631,104.484 C 58.047,62.193 33.583,0 0,0 m 153.41,81.265 c -1.243,0.416 -2.488,0.831 -3.731,0.831 -3.317,0 -6.219,-2.075 -7.878,-5.391 l -0.415,-1.243 C 127.703,44.778 107.803,0 82.096,0 73.388,0 69.657,4.976 69.657,17.414 c 0,18.243 13.681,54.315 28.608,96.191 l 20.731,55.562 c 2.073,4.976 -1.243,11.609 -7.877,11.609 -3.733,0 -7.05,-2.072 -8.293,-5.39 -2.073,-5.389 -4.561,-11.61 -7.05,-18.658 -7.462,14.926 -20.314,21.976 -37.729,21.976 -38.105,0 -71.588,-56.906 -85.18,-107.953 C -38.439,53.223 -81.359,-0.232 -102.409,0 c -1.132,0.013 -4.163,0.072 -6.997,1.94 -4.011,2.645 -6.27,7.93 -6.27,15.474 0,12.024 5.389,31.096 22.389,79.193 13.683,38.561 20.73,57.633 23.219,65.512 l 34,0 c 4.973,0 8.707,3.731 8.707,8.707 0,4.56 -3.734,8.707 -8.707,8.707 l -27.782,0 c 2.903,7.876 20.732,58.462 19.489,55.974 2.074,5.39 -2.075,11.61 -8.293,11.61 -3.731,0 -7.048,-2.074 -8.293,-5.805 -0.414,-1.66 -20.731,-60.122 -21.56,-61.779 l -31.927,0 c -4.975,0 -8.707,-4.147 -8.707,-8.707 0,-4.976 3.732,-8.707 8.707,-8.707 l 26.122,0 -21.145,-59.292 C -113.915,91.403 -118.043,79.748 -121.563,68.722 -131.603,48.512 -165.253,0.1 -185.326,0 c -1.234,-0.006 -4.709,-0.047 -7.599,2.209 -3.333,2.603 -4.84,7.564 -4.84,15.205 0,17.829 7.463,36.9 47.682,150.095 2.488,7.048 -2.902,11.195 -8.293,11.195 -3.316,0 -6.634,-2.074 -7.878,-5.805 -18.243,-47.268 -47.682,-123.144 -48.925,-155.485 -0.831,-19.073 9.95,-34.829 29.853,-34.829 21.726,0 38.289,16.458 52.507,39.71 -0.179,-1.799 -0.272,-3.433 -0.272,-4.881 0,-19.902 10.779,-34.829 30.682,-34.829 21.182,0 37.718,14.469 47.993,24.101 8.519,7.986 15.379,16.498 20.92,24.928 -0.054,-1.441 -0.088,-2.862 -0.088,-4.25 0,-24.876 10.778,-44.779 33.998,-44.779 17.828,0 35.243,11.61 51.828,34.829 0,-20.316 9.951,-34.829 29.854,-34.829 37.314,0 59.705,50.999 75.46,85.827 l 0.416,1.245 c 0.414,1.243 0.829,2.487 0.829,3.732 0,3.316 -2.074,6.218 -5.391,7.876" /></g><g
           transform="translate(400.2422,385.3666)"
           id="g36"><path
             id="path38"
             style="fill:#ff3e3e;fill-opacity:1;fill-rule:nonzero;stroke:none"
             d="m 0,0 c -9.017,0 -16.395,-7.901 -16.395,-17.559 l 0,-17.558 -40.986,0 0,43.897 c 0,5.268 -3.279,8.78 -8.198,8.78 -4.918,0 -8.197,-3.512 -8.197,-8.78 l 0,-43.897 -49.184,0 0,44.026 c 0,5.268 -3.279,8.706 -8.197,8.706 -4.919,0 -8.197,-3.438 -8.197,-8.706 l 0,-44.026 -49.185,0 0,43.897 c 0,5.268 -3.278,8.78 -8.197,8.78 -4.918,0 -8.197,-3.512 -8.197,-8.78 l 0,-43.897 -40.987,0 0,17.558 c 0,9.658 -7.377,17.559 -16.394,17.559 -45.086,0 -81.974,39.508 -81.974,87.795 0,48.287 36.888,87.794 81.974,87.794 l 9.017,0 c -5.739,-16.68 -9.017,-34.239 -9.017,-52.676 0,-5.268 3.278,-8.78 8.197,-8.78 4.918,0 8.197,3.512 8.197,8.78 0,68.48 52.463,122.912 114.763,122.912 62.3,0 114.762,-54.432 114.762,-122.912 0,-5.268 3.279,-8.78 8.198,-8.78 4.918,0 8.197,3.512 8.197,8.78 0,18.437 -3.279,35.996 -9.845,52.676 l 9.845,0 c 45.085,0 81.974,-39.507 81.974,-87.794 C 81.974,39.508 45.085,0 0,0 m -16.395,-87.794 -229.525,0 0,35.118 229.525,0 0,-35.118 z M 0,193.148 l -17.214,0 c -22.961,42.142 -66.415,70.236 -113.943,70.236 -47.553,0 -90.99,-28.094 -113.123,-70.236 l -18.034,0 c -54.103,0 -98.369,-47.409 -98.369,-105.353 0,-57.944 44.266,-105.354 98.369,-105.354 -0.004,-29.299 -0.008,-58.598 -0.012,-87.898 29.429,0.017 232.901,0.017 262.325,0 0,29.3 0.001,58.599 0.001,87.898 54.103,0 98.368,47.41 98.368,105.354 0,57.944 -44.265,105.353 -98.368,105.353" /></g></g></g></g></svg>